<svg xmlns="http://www.w3.org/2000/svg" viewBox="0 0 127.47 168.94"><defs><style>.cls-1,.cls-2{fill:#006837;}.cls-1{stroke:#000;stroke-miterlimit:10;stroke-width:5px;}</style></defs><title>leaf3</title><g id="Layer_2" data-name="Layer 2"><g id="plant_bg_leaves2"><path class="cls-1" d="M51.68,115.8s35.18-10.3,45.6-16.32,25.15-21.24,25.15-21.24S91.34,72.41,75.72,83,50.89,98.94,48.47,105"/><path class="cls-2" d="M51.57,112.71S75.11,93.45,101.33,86.1"/><path d="M50,110.78c4-2.89,7.95-5.45,12.06-7.92S70.36,98.13,74.64,96s8.65-4,13.09-5.72a116.68,116.68,0,0,1,13.6-4.2,116.92,116.92,0,0,0-13.11,5.35c-4.23,2.07-8.38,4.29-12.38,6.76s-7.93,5-11.72,7.79-7.53,5.65-11,8.65Z"/><path class="cls-1" d="M30.25,46.14S13.26,25.21,5.1,24.32c0,0-8.34,22.94,4.86,36S32.9,83.12,36.49,95.67C38.28,102,34.64,70.41,30,44.62S58.1,4,58.1,4C58,6.14,60.62,16.84,66.77,32.86s-12,52.54-20.21,55.06-8.44,8.34-8.44,8.34"/><path class="cls-2" d="M36.49,95.67s10.17-31.79,7.7-38.44,5.85-36,5.85-36"/><path d="M34.11,94.91c2.07-5.92,4-12,5.73-18,.85-3,1.66-6.08,2.31-9.13.32-1.53.62-3.06.84-4.58a22,22,0,0,0,.25-4.45,5,5,0,0,0-.15-.94c0-.11-.1-.39-.16-.62a3.58,3.58,0,0,1-.14-.68,14.32,14.32,0,0,1-.15-2.58,38.82,38.82,0,0,1,.45-4.87c.46-3.19,1.13-6.31,1.85-9.41,1.47-6.2,3.2-12.32,5.1-18.38-1.49,6.17-2.82,12.38-3.87,18.62-.52,3.12-1,6.26-1.22,9.38a38,38,0,0,0-.13,4.63,12.26,12.26,0,0,0,.27,2.16,3.22,3.22,0,0,0,.13.47l.17.53a7.64,7.64,0,0,1,.33,1.38,23.14,23.14,0,0,1,.06,5c-.12,1.64-.32,3.24-.55,4.84-.47,3.19-1.08,6.34-1.74,9.48-1.35,6.27-2.9,12.44-4.62,18.63Z"/><path class="cls-2" d="M36.06,85.56s-9.24-30-20.92-36.95"/><path d="M33.67,86.3c-.86-3.37-1.89-6.82-3-10.18s-2.36-6.71-3.76-10a73,73,0,0,0-4.8-9.51,26.38,26.38,0,0,0-7-8c3.2,1.71,5.73,4.48,8,7.3a76.65,76.65,0,0,1,6,9.11c1.81,3.16,3.46,6.41,5,9.71s3,6.62,4.31,10.09Z"/><path class="cls-1" d="M33,165.91s3.85-25.65,7.61-40.83c0,0,3.45-6,8-5.35s5.86-13.66-8.79-22.88c0,0-13.8-4.5-14.9-7.36,0,0-6.48.11-2.86,6.5s12.44,18.31,13.49,26c2.38,17.49-8.52,42.55-8.52,42.55Z"/><path class="cls-2" d="M35.83,124.65s6.33-8.12-.62-15.43S27.49,96,27.49,96"/><path d="M33.86,123.12c.1-.1.31-.37.47-.57s.33-.46.48-.7a12.29,12.29,0,0,0,.83-1.51,11.09,11.09,0,0,0,.94-3.25,8.89,8.89,0,0,0-.28-3.36,8.7,8.7,0,0,0-.66-1.63c-.14-.26-.26-.54-.42-.79l-.53-.75c-.32-.49-.79-1.06-1.21-1.61s-.81-1.12-1.22-1.68a34.78,34.78,0,0,1-2.15-3.54A22.61,22.61,0,0,1,27.49,96a21.89,21.89,0,0,0,3.68,7.07,35.36,35.36,0,0,0,2.55,3c.47.47.91,1,1.4,1.4s.94.86,1.47,1.43l.77.8c.24.28.45.6.68.9a11.37,11.37,0,0,1,1.17,2,12.24,12.24,0,0,1,1.12,4.56,15.2,15.2,0,0,1-.57,4.66A18.41,18.41,0,0,1,39,124c-.15.36-.33.71-.51,1.07s-.36.66-.66,1.11Z"/></g></g></svg>