<svg xmlns="http://www.w3.org/2000/svg" viewBox="0 0 148.56 141.25"><defs><style>.cls-1{fill:#e6e6e6;}</style></defs><title>vase_2</title><g id="Layer_2" data-name="Layer 2"><g id="plant"><path class="cls-1" d="M74.28,138.75c-38.91,0-71.78-12.87-71.78-28.11a10.07,10.07,0,0,1,.17-1.76l0-.09L12,10.85H136.54l9.33,97.94,0,.09a11.14,11.14,0,0,1,.17,1.76C146.06,125.88,113.19,138.75,74.28,138.75Z"/><path d="M134.27,13.35l9.1,95.59,0,.18,0,.18a8.46,8.46,0,0,1,.14,1.34c0,5.84-7,12.21-18.66,17-13.44,5.54-31.42,8.59-50.62,8.59s-37.18-3.05-50.62-8.59C12,122.85,5,116.48,5,110.64a7.42,7.42,0,0,1,.14-1.34l0-.18v-.18l9.11-95.59h120m4.55-5H9.74L.21,108.46A12.2,12.2,0,0,0,0,110.64c0,16.9,33.26,30.61,74.28,30.61s74.28-13.71,74.28-30.61a13.2,13.2,0,0,0-.21-2.18L138.82,8.35Z"/><path class="cls-1" d="M74.28,14.2c-33.79,0-55.89-3.2-61.15-5.85C18.39,5.7,40.49,2.5,74.28,2.5s55.89,3.2,61.15,5.85C130.17,11,108.07,14.2,74.28,14.2Z"/><path d="M74.28,5c24.14,0,41.32,1.64,51.14,3.35-9.82,1.71-27,3.35-51.14,3.35S33,10.06,23.14,8.35C33,6.64,50.14,5,74.28,5m0-5C38.68,0,9.83,3.74,9.83,8.35S38.68,16.7,74.28,16.7,138.73,13,138.73,8.35,109.87,0,74.28,0Z"/></g></g></svg>