<svg xmlns="http://www.w3.org/2000/svg" viewBox="0 0 122 153.29"><defs><style>.cls-1{fill:none;}.cls-1,.cls-2{stroke:#000;stroke-miterlimit:10;stroke-width:5px;}.cls-2{fill:#009245;}</style></defs><title>leaf1</title><g id="Layer_2" data-name="Layer 2"><g id="plant_bg_leaves2"><path class="cls-1" d="M119.69,152.34s-15.12-36.76-31.45-54.55c0,0-6.25-1.69-18.62-8.53"/><path class="cls-2" d="M76.87,93.05c-.56-.14-28.13-6.94-42.58-26.09,0,0,63.06,9.35,54,30.83"/><path class="cls-2" d="M76.88,93.05h0"/><path class="cls-2" d="M77.8,80S69.91,65.3,65.23,62.07c0,0-25.1-15.15-35.6-25.15S24.12,22.52,1.25,9.32c0,0,30.78,12.35,37.13,24.13s26.7,19.16,26.85,28.62"/><path class="cls-2" d="M69.26,66.35s0-10.53-5.92-12.83S53,28.38,72.37,12c0,0,5.86-4.94,6.47-8.25,0,0,9.54,4.91,5.32,16.86s-15.82,35-15.75,39.83"/><path class="cls-2" d="M93.17,103.76s6.44-25.07,4.58-29.14-7.47-33.53,8-40.73c0,0,2.76,35.75-8,40.73"/></g></g></svg>