<svg xmlns="http://www.w3.org/2000/svg" viewBox="0 0 178.52 228.48"><defs><style>.cls-1,.cls-2{fill:#39b54a;}.cls-1{stroke:#000;stroke-miterlimit:10;stroke-width:5px;}</style></defs><title>leaf2</title><g id="Layer_2" data-name="Layer 2"><g id="plant_bg_leaves2"><path class="cls-1" d="M86.93,154.2s-43.45-24.07-55.42-35.12S4.56,83.54,4.56,83.54,47.4,85.07,64.9,103.68,93,132.15,94.37,140.93"/><path class="cls-2" d="M88,150.15s-25.39-32.46-57.87-50"/><path d="M86,151.69c-3.75-5-7.89-9.89-12.14-14.6s-8.73-9.27-13.37-13.65S51,114.92,46,111a160.46,160.46,0,0,0-15.87-10.79A157.3,157.3,0,0,1,46.72,110c5.31,3.62,10.51,7.45,15.45,11.59s9.77,8.42,14.41,12.92,9.09,9.14,13.38,14.13Z"/><path class="cls-1" d="M136,68.48s28.68-22.6,39.73-21.36c0,0,4.2,32.8-17.13,46.16s-37.09,23.3-45.56,38.83c-4.24,7.77,10-32.84,23.77-65.55S111.66,4.5,111.66,4.5c-.47,2.88-7.14,16.23-20,35.58s.23,73,10.36,78.79,8.68,13.53,8.68,13.53"/><path class="cls-2" d="M113,132.11S109,87.06,114.24,79s2.94-49.29,2.94-49.29"/><path d="M110.5,132.33c-.51-8.67-.8-17.28-.79-25.94,0-4.33.11-8.66.41-13,.15-2.17.34-4.34.64-6.52a32.07,32.07,0,0,1,1.5-6.57l.35-.83c.12-.28.3-.56.45-.83l.39-.67a3.61,3.61,0,0,0,.32-.62,17.37,17.37,0,0,0,1-2.85,50.42,50.42,0,0,0,1.16-6.21c.57-4.22.86-8.5,1.07-12.79.39-8.57.41-17.18.19-25.78.64,8.58,1,17.19,1.06,25.81,0,4.31-.09,8.63-.45,13a54.43,54.43,0,0,1-.9,6.51,19.67,19.67,0,0,1-1,3.28,5.61,5.61,0,0,1-.38.83c-.15.27-.32.59-.39.75a5.55,5.55,0,0,0-.29.6l-.24.67a29.18,29.18,0,0,0-1.06,6.05c-.2,2.09-.28,4.22-.32,6.34-.08,4.25,0,8.52.22,12.79.4,8.53,1.11,17.1,2,25.58Z"/><path class="cls-2" d="M116.56,118.87S137.68,82,155.18,76.24"/><path d="M114.39,117.63c2.7-4.21,5.52-8.19,8.47-12.13s6-7.77,9.29-11.44a101.39,101.39,0,0,1,10.46-10.37,53.56,53.56,0,0,1,5.93-4.37,26.35,26.35,0,0,1,6.64-3.08,26.11,26.11,0,0,0-6.28,3.6,51.44,51.44,0,0,0-5.44,4.77,97.67,97.67,0,0,0-9.37,11c-2.89,3.87-5.58,7.88-8.14,12s-5,8.29-7.22,12.49Z"/><path class="cls-1" d="M96.68,226s2.54-35,2.08-56.23c0,0-2.77-9-9-9.45s-3.69-19.8,18.42-27.64c0,0,19.58-1.84,21.88-5.29,0,0,8.52,2.07,1.84,9.44s-21.88,20.5-25.56,30.4C98,189.62,105,226,105,226Z"/><path d="M103,171.68a15.93,15.93,0,0,1-.52-1.57c-.13-.49-.27-1-.36-1.49a20.53,20.53,0,0,1-.43-3,19.63,19.63,0,0,1,.51-6.1,16.17,16.17,0,0,1,2.63-5.52,15.91,15.91,0,0,1,2-2.21c.38-.33.73-.69,1.12-1l1.21-.84c.83-.58,1.56-1,2.33-1.49s1.49-1,2.25-1.49a46.73,46.73,0,0,0,4.22-3.36,29.65,29.65,0,0,0,6.8-8.41,30.44,30.44,0,0,1-5.91,9.29,47.49,47.49,0,0,1-4,3.95c-.71.6-1.39,1.24-2.13,1.8s-1.51,1.17-2.12,1.72l-1,.84c-.31.29-.56.62-.84.93a12.1,12.1,0,0,0-1.46,2,12.79,12.79,0,0,0-1.56,4.53,15.54,15.54,0,0,0,.16,4.81,16.07,16.07,0,0,0,.62,2.36c.12.39.27.76.41,1.13a10.55,10.55,0,0,0,.47,1Z"/></g></g></svg>